<?xml version="1.0" encoding="utf-8"?>
<!-- Generator: Adobe Illustrator 19.0.0, SVG Export Plug-In . SVG Version: 6.00 Build 0)  -->
<svg version="1.1" id="图层_1" xmlns="http://www.w3.org/2000/svg" xmlns:xlink="http://www.w3.org/1999/xlink" x="0px" y="0px"
	 viewBox="-277 400.9 40 40" style="enable-background:new -277 400.9 40 40;" xml:space="preserve">
<style type="text/css">
	.st0{fill:url(#SVGID_1_);}
	.st1{fill:url(#SVGID_2_);}
	.st2{fill:url(#SVGID_3_);}
</style>
<g>
	<g>
		<g>
			<g>
				<linearGradient id="SVGID_1_" gradientUnits="userSpaceOnUse" x1="-264.2719" y1="413.1814" x2="-251.4056" y2="426.0476">
					<stop  offset="0" style="stop-color:#5DE4D3"/>
					<stop  offset="1" style="stop-color:#55EABE"/>
				</linearGradient>
				<path class="st0" d="M-252.7,426.3h-7.1c-1.1,0-2.1-0.7-2.4-1.8l-2-6.9l0,0l-0.5-1.7l-1-0.3c-0.3-0.1-0.4-0.4-0.3-0.6
					c0.1-0.3,0.4-0.4,0.6-0.3l1.2,0.4c0.2,0,0.3,0.2,0.3,0.3l0.5,1.6l13,0.9c0.4,0,0.9,0.3,1.1,0.6c0.3,0.4,0.3,0.8,0.2,1.3
					l-1.2,4.7C-250.6,425.6-251.6,426.3-252.7,426.3z M-263,418l1.8,6.2c0.2,0.6,0.8,1.1,1.4,1.1h7.1c0.7,0,1.3-0.5,1.4-1.1l1.2-4.7
					c0-0.1,0-0.3-0.1-0.4c-0.1-0.1-0.2-0.2-0.4-0.2L-263,418z"/>
			</g>
			<g>
				<linearGradient id="SVGID_2_" gradientUnits="userSpaceOnUse" x1="-261.5125" y1="425.8775" x2="-258.6875" y2="428.7025">
					<stop  offset="0" style="stop-color:#5DE4D3"/>
					<stop  offset="1" style="stop-color:#55EABE"/>
				</linearGradient>
				<path class="st1" d="M-260.1,429.3c-1.1,0-2-0.9-2-2s0.9-2,2-2s2,0.9,2,2S-259,429.3-260.1,429.3z M-260.1,426.3
					c-0.6,0-1,0.4-1,1s0.4,1,1,1s1-0.4,1-1S-259.6,426.3-260.1,426.3z"/>
			</g>
			<g>
				<linearGradient id="SVGID_3_" gradientUnits="userSpaceOnUse" x1="-254.2125" y1="425.8775" x2="-251.3875" y2="428.7025">
					<stop  offset="0" style="stop-color:#5DE4D3"/>
					<stop  offset="1" style="stop-color:#55EABE"/>
				</linearGradient>
				<path class="st2" d="M-252.8,429.3c-1.1,0-2-0.9-2-2s0.9-2,2-2c1.1,0,2,0.9,2,2S-251.7,429.3-252.8,429.3z M-252.8,426.3
					c-0.6,0-1,0.4-1,1s0.4,1,1,1c0.6,0,1-0.4,1-1S-252.2,426.3-252.8,426.3z"/>
			</g>
		</g>
	</g>
</g>
</svg>
