<?xml version="1.0" encoding="utf-8"?>
<!-- Generator: Adobe Illustrator 19.0.0, SVG Export Plug-In . SVG Version: 6.00 Build 0)  -->
<svg version="1.1" id="图层_1" xmlns="http://www.w3.org/2000/svg" xmlns:xlink="http://www.w3.org/1999/xlink" x="0px" y="0px"
	 viewBox="-277 400.9 40 40" style="enable-background:new -277 400.9 40 40;" xml:space="preserve">
<style type="text/css">
	.st0{fill:url(#SVGID_1_);}
	.st1{fill:url(#SVGID_2_);}
	.st2{fill:url(#SVGID_3_);}
	.st3{fill:url(#SVGID_4_);}
	.st4{fill:url(#SVGID_5_);}
	.st5{fill:url(#SVGID_6_);}
</style>
<g>
	<g>
		<g>
			<g>
				<g>
					<linearGradient id="SVGID_1_" gradientUnits="userSpaceOnUse" x1="-263.0125" y1="414.8775" x2="-250.9875" y2="426.9025">
						<stop  offset="0" style="stop-color:#5DDAD7"/>
						<stop  offset="1" style="stop-color:#5AEDC9"/>
					</linearGradient>
					<path class="st0" d="M-257,429.4c-4.7,0-8.5-3.8-8.5-8.5c0-4.7,3.8-8.5,8.5-8.5c4.7,0,8.5,3.8,8.5,8.5
						C-248.5,425.6-252.3,429.4-257,429.4z M-257,413.4c-4.1,0-7.5,3.4-7.5,7.5c0,4.1,3.4,7.5,7.5,7.5s7.5-3.4,7.5-7.5
						C-249.5,416.8-252.9,413.4-257,413.4z"/>
				</g>
				<g>
					<linearGradient id="SVGID_2_" gradientUnits="userSpaceOnUse" x1="-258.2687" y1="417.4337" x2="-254.5437" y2="421.1588">
						<stop  offset="0" style="stop-color:#5DDAD7"/>
						<stop  offset="1" style="stop-color:#5AEDC9"/>
					</linearGradient>
					<path class="st1" d="M-255,421.4h-1.4c-0.6,0-1.1-0.5-1.1-1.1v-3.4c0-0.3,0.2-0.5,0.5-0.5s0.5,0.2,0.5,0.5v3.4
						c0,0.1,0.1,0.1,0.1,0.1h1.4c0.3,0,0.5,0.2,0.5,0.5C-254.5,421.2-254.7,421.4-255,421.4z"/>
				</g>
				<g>
					<linearGradient id="SVGID_3_" gradientUnits="userSpaceOnUse" x1="-257.7375" y1="413.4025" x2="-256.2625" y2="414.8775">
						<stop  offset="0" style="stop-color:#5DDAD7"/>
						<stop  offset="1" style="stop-color:#5AEDC9"/>
					</linearGradient>
					<path class="st2" d="M-257,415.4c-0.3,0-0.5-0.2-0.5-0.5v-1.5c0-0.3,0.2-0.5,0.5-0.5s0.5,0.2,0.5,0.5v1.5
						C-256.5,415.2-256.7,415.4-257,415.4z"/>
				</g>
				<g>
					<linearGradient id="SVGID_4_" gradientUnits="userSpaceOnUse" x1="-250.9875" y1="420.1525" x2="-249.5125" y2="421.6275">
						<stop  offset="0" style="stop-color:#5DDAD7"/>
						<stop  offset="1" style="stop-color:#5AEDC9"/>
					</linearGradient>
					<path class="st3" d="M-249.5,421.4h-1.5c-0.3,0-0.5-0.2-0.5-0.5c0-0.3,0.2-0.5,0.5-0.5h1.5c0.3,0,0.5,0.2,0.5,0.5
						C-249,421.2-249.2,421.4-249.5,421.4z"/>
				</g>
				<g>
					<linearGradient id="SVGID_5_" gradientUnits="userSpaceOnUse" x1="-264.4875" y1="420.1525" x2="-263.0125" y2="421.6275">
						<stop  offset="0" style="stop-color:#5DDAD7"/>
						<stop  offset="1" style="stop-color:#5AEDC9"/>
					</linearGradient>
					<path class="st4" d="M-263,421.4h-1.5c-0.3,0-0.5-0.2-0.5-0.5c0-0.3,0.2-0.5,0.5-0.5h1.5c0.3,0,0.5,0.2,0.5,0.5
						C-262.5,421.2-262.7,421.4-263,421.4z"/>
				</g>
				<g>
					<linearGradient id="SVGID_6_" gradientUnits="userSpaceOnUse" x1="-257.7375" y1="426.9025" x2="-256.2625" y2="428.3775">
						<stop  offset="0" style="stop-color:#5DDAD7"/>
						<stop  offset="1" style="stop-color:#5AEDC9"/>
					</linearGradient>
					<path class="st5" d="M-257,428.9c-0.3,0-0.5-0.2-0.5-0.5v-1.5c0-0.3,0.2-0.5,0.5-0.5s0.5,0.2,0.5,0.5v1.5
						C-256.5,428.7-256.7,428.9-257,428.9z"/>
				</g>
			</g>
		</g>
	</g>
</g>
</svg>
