<?xml version="1.0" encoding="utf-8"?>
<!-- Generator: Adobe Illustrator 19.0.0, SVG Export Plug-In . SVG Version: 6.00 Build 0)  -->
<svg version="1.1" id="Capa_1" xmlns="http://www.w3.org/2000/svg" xmlns:xlink="http://www.w3.org/1999/xlink" x="0px" y="0px"
	 viewBox="-274.3 389 36.5 63.5" style="enable-background:new -274.3 389 36.5 63.5;" xml:space="preserve">
<style type="text/css">
	.st0{fill:url(#SVGID_1_);}
	.st1{fill:url(#SVGID_2_);}
	.st2{fill:url(#SVGID_3_);}
</style>
<g>
	<g>
		<g>
			<linearGradient id="SVGID_1_" gradientUnits="userSpaceOnUse" x1="-272.6667" y1="420.78" x2="-239.3333" y2="420.78">
				<stop  offset="0" style="stop-color:#5BEBCD"/>
				<stop  offset="1" style="stop-color:#4EE2AE"/>
			</linearGradient>
			<path class="st0" d="M-247.5,409c-2.2-3.1-4.5-6.3-6.2-9.7c-0.5-0.9-1.5-1.5-2.5-1.5c-1,0-2,0.6-2.5,1.5
				c-1.7,3.3-3.8,6.5-5.9,9.5c-4.2,6.1-8.1,11.7-8.1,18.1c0,9.8,6.9,16.9,16.4,16.9c9.6,0,16.9-7.3,16.9-16.9
				C-239.3,420.6-243.3,415-247.5,409z M-256.2,441.9c-8.5,0-14.6-6.3-14.6-15c0-5.7,3.8-11.2,7.7-17c2.1-3.1,4.3-6.3,6.1-9.8
				c0.2-0.5,0.7-0.5,0.8-0.5c0.2,0,0.6,0,0.8,0.5c1.8,3.5,4.1,6.8,6.3,10c4,5.7,7.8,11.1,7.8,16.8
				C-241.2,435.5-247.7,441.9-256.2,441.9z"/>
			<linearGradient id="SVGID_2_" gradientUnits="userSpaceOnUse" x1="-266.8902" y1="416.3333" x2="-260.2196" y2="416.3333">
				<stop  offset="0" style="stop-color:#5BEBCD"/>
				<stop  offset="1" style="stop-color:#4EE2AE"/>
			</linearGradient>
			<path class="st1" d="M-260.6,411.6c-0.4-0.3-1-0.2-1.3,0.2c-1.6,2.4-3.5,5.3-4.8,8.1c-0.2,0.5,0,1,0.5,1.3c0.1,0,0.3,0.1,0.4,0.1
				c0.3,0,0.7-0.2,0.8-0.5c1.3-2.8,3.1-5.5,4.7-7.8C-260.1,412.4-260.2,411.9-260.6,411.6z"/>
			<linearGradient id="SVGID_3_" gradientUnits="userSpaceOnUse" x1="-268.4573" y1="423.8227" x2="-266.1236" y2="423.8227">
				<stop  offset="0" style="stop-color:#5BEBCD"/>
				<stop  offset="1" style="stop-color:#4EE2AE"/>
			</linearGradient>
			<path class="st2" d="M-266.8,422.3c-0.5-0.2-1,0-1.2,0.5c-0.2,0.5-0.4,1-0.5,1.5c-0.1,0.5,0.2,1,0.8,1.1c0,0,0.1,0,0.2,0
				c0.4,0,0.8-0.3,0.9-0.8c0.1-0.4,0.2-0.8,0.4-1.3C-266,423-266.2,422.5-266.8,422.3z"/>
		</g>
	</g>
</g>
</svg>
