<?xml version="1.0" encoding="utf-8"?>
<!-- Generator: Adobe Illustrator 19.0.0, SVG Export Plug-In . SVG Version: 6.00 Build 0)  -->
<svg version="1.1" id="图层_1" xmlns="http://www.w3.org/2000/svg" xmlns:xlink="http://www.w3.org/1999/xlink" x="0px" y="0px"
	 viewBox="-277 400.9 40 40" style="enable-background:new -277 400.9 40 40;" xml:space="preserve">
<style type="text/css">
	.st0{fill:url(#SVGID_1_);}
	.st1{fill:url(#SVGID_2_);}
</style>
<g>
	<g>
		<g>
			<linearGradient id="SVGID_1_" gradientUnits="userSpaceOnUse" x1="-262.945" y1="416.035" x2="-251.045" y2="427.935">
				<stop  offset="0" style="stop-color:#5DD0D9"/>
				<stop  offset="1" style="stop-color:#5DE9D1"/>
			</linearGradient>
			<path class="st0" d="M-251,427.3h-12c-0.8,0-1.5-0.7-1.5-1.5v-5c0-0.3-0.2-0.5-0.5-0.5h-1c-0.2,0-0.4-0.1-0.5-0.3
				c-0.1-0.2,0-0.4,0.2-0.6l8.4-6.5c0.5-0.4,1.3-0.4,1.8,0l8.4,6.5c0.2,0.1,0.2,0.4,0.2,0.6c-0.1,0.2-0.3,0.3-0.5,0.3h-1
				c-0.3,0-0.5,0.2-0.5,0.5v5C-249.5,426.6-250.2,427.3-251,427.3z M-264.6,419.3c0.6,0.2,1.1,0.8,1.1,1.4v5c0,0.3,0.2,0.5,0.5,0.5
				h12c0.3,0,0.5-0.2,0.5-0.5v-5c0-0.7,0.5-1.3,1.1-1.4l-7.3-5.7c-0.2-0.1-0.4-0.1-0.6,0L-264.6,419.3z"/>
		</g>
		<g>
			<linearGradient id="SVGID_2_" gradientUnits="userSpaceOnUse" x1="-259.65" y1="421.34" x2="-254.35" y2="426.64">
				<stop  offset="0" style="stop-color:#5DD0D9"/>
				<stop  offset="1" style="stop-color:#5DE9D1"/>
			</linearGradient>
			<path class="st1" d="M-255.5,426.8v-5c0-0.3-0.2-0.5-0.5-0.5h-2c-0.3,0-0.5,0.2-0.5,0.5v5h-1v-5c0-0.8,0.7-1.5,1.5-1.5h2
				c0.8,0,1.5,0.7,1.5,1.5v5H-255.5z"/>
		</g>
	</g>
</g>
</svg>
