<?xml version="1.0" encoding="utf-8"?>
<!-- Generator: Adobe Illustrator 19.0.0, SVG Export Plug-In . SVG Version: 6.00 Build 0)  -->
<svg version="1.1" id="图层_1" xmlns="http://www.w3.org/2000/svg" xmlns:xlink="http://www.w3.org/1999/xlink" x="0px" y="0px"
	 viewBox="-277 400.9 40 40" style="enable-background:new -277 400.9 40 40;" xml:space="preserve">
<style type="text/css">
	.st0{fill:url(#SVGID_1_);}
	.st1{fill:url(#SVGID_2_);}
</style>
<g>
	<g>
		<g>
			<g>
				<linearGradient id="SVGID_1_" gradientUnits="userSpaceOnUse" x1="-258.775" y1="422.665" x2="-255.225" y2="419.115">
					<stop  offset="0" style="stop-color:#47D89E"/>
					<stop  offset="1" style="stop-color:#59ECC4"/>
				</linearGradient>
				<path class="st0" d="M-257,423.4c-1.4,0-2.5-1.1-2.5-2.5c0-1.4,1.1-2.5,2.5-2.5s2.5,1.1,2.5,2.5
					C-254.5,422.3-255.6,423.4-257,423.4z M-257,419.4c-0.8,0-1.5,0.7-1.5,1.5c0,0.8,0.7,1.5,1.5,1.5s1.5-0.7,1.5-1.5
					C-255.5,420.1-256.2,419.4-257,419.4z"/>
			</g>
			<g>
				<linearGradient id="SVGID_2_" gradientUnits="userSpaceOnUse" x1="-263.1" y1="426.89" x2="-251" y2="414.79">
					<stop  offset="0" style="stop-color:#47D89E"/>
					<stop  offset="1" style="stop-color:#59ECC4"/>
				</linearGradient>
				<path class="st1" d="M-256.3,429.4h-1.3c-0.6,0-1.2-0.5-1.2-1.2v-1c-0.4-0.1-0.8-0.3-1.2-0.5c-0.1,0-0.2,0-0.2,0l-0.7,0.7
					c-0.4,0.4-1.2,0.4-1.7,0l-1-1c-0.5-0.5-0.5-1.2,0-1.7l0.7-0.7c0.1-0.1,0-0.2,0-0.2c-0.2-0.3-0.3-0.7-0.4-1
					c0-0.1-0.1-0.1-0.2-0.1h-0.9c-0.6,0-1.2-0.5-1.2-1.2v-1.3c0-0.6,0.5-1.2,1.2-1.2h0.9c0.1,0,0.1-0.1,0.2-0.1
					c0.1-0.4,0.3-0.7,0.4-1c0-0.1,0-0.1,0-0.2l-0.7-0.7c-0.5-0.5-0.5-1.2,0-1.7l1-1c0.4-0.4,1.2-0.4,1.7,0l0.7,0.7
					c0.1,0.1,0.1,0.1,0.2,0c0.3-0.2,0.7-0.3,1-0.4c0.1,0,0.1-0.1,0.1-0.2v-0.9c0-0.6,0.5-1.2,1.2-1.2h1.3c0.6,0,1.2,0.5,1.2,1.2v0.9
					c0,0.1,0.1,0.1,0.1,0.2c0.3,0.1,0.7,0.3,1,0.4c0.1,0,0.2,0,0.2,0l0.7-0.7c0.4-0.4,1.2-0.4,1.7,0l1,1c0.5,0.5,0.5,1.2,0,1.7
					l-0.7,0.7c-0.1,0.1,0,0.2,0,0.2c0.2,0.3,0.3,0.7,0.4,1c0,0.1,0.1,0.1,0.2,0.1h0.9c0.6,0,1.2,0.5,1.2,1.2v1.3
					c0,0.6-0.5,1.2-1.2,1.2h-0.9c-0.1,0-0.1,0.1-0.2,0.1c-0.1,0.4-0.3,0.7-0.4,1c0,0.1,0,0.1,0,0.2l0.7,0.7c0.5,0.5,0.5,1.2,0,1.7
					l-1,1c-0.4,0.4-1.2,0.4-1.7,0l-0.7-0.7c-0.1-0.1-0.1-0.1-0.2,0c-0.3,0.2-0.7,0.3-1,0.4c-0.1,0-0.1,0.1-0.1,0.2v0.9
					C-255.2,428.9-255.7,429.4-256.3,429.4z M-260.1,425.7c0.2,0,0.4,0,0.6,0.1c0.4,0.2,0.9,0.4,1.3,0.5c0.2,0.1,0.4,0.3,0.4,0.5
					v1.4c0,0.1,0.1,0.2,0.2,0.2h1.3c0.1,0,0.2-0.1,0.2-0.2v-0.9c0-0.5,0.3-1,0.8-1.1c0.3-0.1,0.6-0.2,0.9-0.4c0.5-0.2,1-0.2,1.4,0.2
					l0.7,0.7c0.1,0.1,0.2,0.1,0.2,0l1-1c0.1-0.1,0.1-0.2,0-0.2l-0.7-0.7c-0.4-0.4-0.4-0.9-0.2-1.4c0.1-0.3,0.3-0.6,0.4-0.9
					c0.2-0.5,0.6-0.8,1.1-0.8h0.9c0.1,0,0.2-0.1,0.2-0.2v-1.3c0-0.1-0.1-0.2-0.2-0.2h-0.9c-0.5,0-1-0.3-1.1-0.8
					c-0.1-0.3-0.2-0.6-0.4-0.9c-0.2-0.5-0.2-1,0.2-1.4l0.7-0.7c0.1-0.1,0.1-0.2,0-0.2l-1-1c-0.1-0.1-0.2-0.1-0.2,0l-0.7,0.7
					c-0.4,0.3-0.9,0.4-1.4,0.2c-0.3-0.1-0.6-0.3-0.9-0.4c-0.5-0.2-0.8-0.6-0.8-1.1v-0.9c0-0.1-0.1-0.2-0.2-0.2h-1.3
					c-0.1,0-0.2,0.1-0.2,0.2v0.9c0,0.5-0.3,1-0.8,1.1c-0.3,0.1-0.6,0.2-0.9,0.4c-0.5,0.2-1,0.2-1.4-0.2l-0.7-0.7
					c-0.1-0.1-0.2-0.1-0.2,0l-1,1c-0.1,0.1-0.1,0.2,0,0.2l0.7,0.7c0.4,0.4,0.4,0.9,0.2,1.4c-0.1,0.3-0.3,0.6-0.4,0.9
					c-0.2,0.5-0.6,0.8-1.1,0.8h-0.9c-0.1,0-0.2,0.1-0.2,0.2v1.3c0,0.1,0.1,0.2,0.2,0.2h0.9c0.5,0,1,0.3,1.1,0.8
					c0.1,0.3,0.2,0.6,0.4,0.9c0.2,0.5,0.2,1-0.2,1.4l-0.7,0.7c-0.1,0.1-0.1,0.2,0,0.2l1,1c0.1,0.1,0.2,0.1,0.2,0l0.7-0.7
					C-260.7,425.8-260.4,425.7-260.1,425.7z"/>
			</g>
		</g>
	</g>
</g>
</svg>
